<svg width="24" height="24" viewBox="0 0 24 24" fill="none" xmlns="http://www.w3.org/2000/svg">
<path d="M20 13V11L18.3 10.4C18.1 9.8 17.9 9.2 17.6 8.6L18.4 7L17 5.6L15.4 6.4C14.9 6.1 14.3 5.8 13.6 5.7L13 4H11L10.4 5.7C9.8 5.9 9.2 6.1 8.7 6.4L7.1 5.6L5.6 7.1L6.4 8.7C6.1 9.2 5.9 9.8 5.7 10.4L4 11V13L5.7 13.6C5.9 14.2 6.1 14.8 6.4 15.4L5.6 17L7 18.4L8.6 17.6C9.1 17.9 9.7 18.2 10.4 18.3L11 20H13L13.6 18.3C14.2 18.1 14.8 17.9 15.4 17.6L17 18.4L18.4 17L17.6 15.4C17.9 14.9 18.2 14.3 18.3 13.6L20 13V13ZM12 16C9.8 16 8 14.2 8 12C8 9.8 9.8 8 12 8C14.2 8 16 9.8 16 12C16 14.2 14.2 16 12 16Z" fill="white" fill-opacity="0.6"/>
<path d="M14.6 11.8999C14.6 13.2809 13.481 14.3999 12.1 14.3999C10.719 14.3999 9.59998 13.2809 9.59998 11.8999C9.59998 10.5189 10.719 9.3999 12.1 9.3999C13.481 9.3999 14.6 10.5189 14.6 11.8999Z" fill="white" fill-opacity="0.6"/>
</svg>
